<svg width="14" height="15" viewBox="0 0 14 15" fill="none" xmlns="http://www.w3.org/2000/svg">
<path d="M11.3909 3.39862L4.81595 10.2245L2.60854 7.93289C2.60835 7.93269 2.60817 7.9325 2.60799 7.9323C2.52285 7.843 2.42101 7.77155 2.30807 7.72256C2.19486 7.67346 2.07303 7.64804 1.94973 7.64804C1.82644 7.64804 1.70461 7.67346 1.5914 7.72256C1.47867 7.77145 1.377 7.84273 1.29197 7.9318C1.20617 8.02008 1.13851 8.12459 1.09243 8.2391C1.04617 8.35406 1.02246 8.4771 1.02246 8.60116C1.02246 8.72523 1.04617 8.84827 1.09243 8.96323L1.32185 8.87091L1.09243 8.96323C1.1386 9.07795 1.20643 9.18265 1.29246 9.27104C1.29265 9.27123 1.29284 9.27143 1.29303 9.27162L4.15137 12.2391C4.51585 12.6175 5.10923 12.6175 5.47371 12.2391L12.7064 4.73735C12.7066 4.73719 12.7067 4.73703 12.7069 4.73687C12.793 4.64846 12.8608 4.54373 12.907 4.42896C12.9533 4.314 12.977 4.19096 12.977 4.06689C12.977 3.94283 12.9533 3.81979 12.907 3.70483C12.861 3.59032 12.7933 3.4858 12.7075 3.39752C12.6225 3.30845 12.5208 3.23718 12.4081 3.18829C12.2949 3.13919 12.173 3.11377 12.0497 3.11377C11.9264 3.11377 11.8046 3.13919 11.6914 3.18829C11.5784 3.23728 11.4766 3.30874 11.3915 3.39806C11.3913 3.39825 11.3911 3.39843 11.3909 3.39862Z" fill="#6B6C77" stroke="#6B6C77" stroke-width="0.5"/>
</svg>
